<svg xmlns="http://www.w3.org/2000/svg" viewBox="0 0 359.81 93"><defs><style>.cls-1{fill:#3772b4;}.cls-1,.cls-13,.cls-5,.cls-6,.cls-7,.cls-8{fill-rule:evenodd;}.cls-13,.cls-2{fill:#fff;}.cls-3{fill:#cc6e2f;}.cls-4,.cls-6{fill:#f2b92c;}.cls-5,.cls-9{fill:#5e9bc9;}.cls-12,.cls-7{fill:#4480a5;}.cls-8{fill:#ff9750;}.cls-10{fill:#d19c24;}.cls-11{fill:#5d5d5d;}</style></defs><title>Recurso 1DFD</title><g id="Capa_2" data-name="Capa 2"><g id="OBJECTS"><path class="cls-1" d="M142.6,8.64s-43.62,19.43-86,0S0,8.64,0,8.64V53.2s14.27-19.43,56.62,0,86,0,86,0Z"/><path class="cls-2" d="M30.61,27.14l-7.3,1,1,7.09,8.13-1.12.29,2.13L22.16,37.7,19.45,18l10.14-1.4.29,2.13-7.71,1.07L23,26l7.3-1Z"/><path class="cls-2" d="M43.83,17.82a24.33,24.33,0,0,1,4.68.54c2.56.53,4.11,1.36,5,2.69a5.06,5.06,0,0,1,.7,4,5.19,5.19,0,0,1-4.52,4.24l0,.09c1.32.81,1.89,2.38,1.92,4.49A32.71,32.71,0,0,0,52,39.49L49.49,39a26.57,26.57,0,0,1-.28-4.9c0-2.8-.78-4-2.94-4.54L44,29.07,42.28,37.5,39.88,37Zm.57,9.35,2.45.5c2.56.53,4.49-.61,4.95-2.83.52-2.51-1-4-3.52-4.51a9.59,9.59,0,0,0-2.42-.26Z"/><path class="cls-2" d="M66.11,23.83a24.25,24.25,0,0,1,4.54,1.26c2.45.92,3.85,2,4.57,3.44a5.06,5.06,0,0,1,.07,4.05,5.19,5.19,0,0,1-5.12,3.49l0,.08c1.18,1,1.5,2.64,1.2,4.73a32.79,32.79,0,0,0-.54,5.62l-2.37-.89a26.91,26.91,0,0,1,.48-4.88c.44-2.76-.15-4.08-2.2-4.94L64.54,35l-3,8.05-2.29-.86Zm-.88,9.33,2.34.88c2.45.92,4.53.09,5.33-2,.9-2.4-.37-4.07-2.78-5a9.6,9.6,0,0,0-2.35-.63Z"/><path class="cls-2" d="M99.32,40.94c-.78,6.79-5.13,9.93-9.94,9.38-5-.57-8-5-7.31-11C82.79,33.07,87,29.4,92,30S100,35.08,99.32,40.94ZM84.67,39.58c-.49,4.21,1.26,8.24,5.09,8.68s6.46-3,7-7.5c.45-3.92-1-8.24-5.08-8.71S85.17,35.24,84.67,39.58Z"/><path class="cls-2" d="M108,31.34a24.42,24.42,0,0,1,4.66-.74c2.61-.18,4.33.2,5.58,1.23A5.06,5.06,0,0,1,120,35.49a5.19,5.19,0,0,1-3.21,5.31v.09c1.5.43,2.46,1.78,3.06,3.8A32.72,32.72,0,0,0,121.67,50l-2.53.18a26.64,26.64,0,0,1-1.6-4.64c-.75-2.69-1.84-3.65-4.06-3.58l-2.3.16.6,8.58-2.44.17Zm3.08,8.85,2.5-.18c2.61-.18,4.16-1.8,4-4.06-.18-2.56-2-3.55-4.61-3.4a9.67,9.67,0,0,0-2.4.4Z"/><path class="cls-3" d="M183,43.84a35.38,35.38,0,0,1-14.86-3.4c-13.77-6.33-25-2-25.15-2l-.73-1.86c.49-.19,12.19-4.66,26.72,2,13.67,6.28,24,1.33,24.08,1.28l.89,1.79A26.11,26.11,0,0,1,183,43.84Z"/><path class="cls-4" d="M199.16,17.71s1.79-13.1-6.53-13.44-15.36,10.59-12.78,26.12S193.94,49,193.94,49Z"/><path class="cls-5" d="M219.15,30.07,194,14.21V35h-6.56a1.11,1.11,0,0,0-1.11,1.11h0a1.11,1.11,0,0,0,1.11,1.11H194V49l76.87,9.52v-25s-11.24-2.23-11.56-9.19Z"/><path class="cls-6" d="M346.76,26.61c-1.71-.53-3.7-.27-5.44-.27H333.1l-16.45,0-32.9,0c-.16,0-2,2.75-2.3,3.07A14,14,0,0,1,277.93,32a13.87,13.87,0,0,1-4.13,1.34c-2,.31-2.87-.45-2.9,1.85-.1,7.76,0,15.53,0,23.29,19.29,1.89,38.74,3.78,58,1.66A42.74,42.74,0,0,0,340,57.74a18,18,0,0,0,8.83-7c2.16-3.51,2.65-7.8,2.64-11.92A23.88,23.88,0,0,0,350.18,30,6.09,6.09,0,0,0,348,27.18,4.89,4.89,0,0,0,346.76,26.61Z"/><polygon class="cls-2" points="219.15 29.78 219.15 35.04 194.02 35.04 194.02 14.21 219.15 29.78"/><polygon class="cls-7" points="194.02 37.18 270.85 37.18 194.02 41.14 194.02 37.18"/><path class="cls-8" d="M283.75,26.39,270.9,58.49s31.7,2.58,36.13,2.58l13.54-34.81Z"/><circle class="cls-9" cx="310.6" cy="82.42" r="10.58"/><circle class="cls-2" cx="310.61" cy="82.49" r="8.26"/><path class="cls-5" d="M288.26,13.88a47,47,0,0,1,37.14-8.8s9.28.86,8.18,5.38c-1,4-4.85,4.15-8.31,3.37a78.5,78.5,0,0,0-24.82-1.9A92,92,0,0,0,288.26,13.88Z"/><polygon class="cls-10" points="306.98 71.84 300.84 60.78 297.65 60.54 304.44 73.95 307.36 72.42 306.98 71.84"/><polygon class="cls-11" points="300.45 11.93 289.52 54.74 292.1 54.74 302.5 11.78 300.45 11.93"/><polygon class="cls-11" points="302.5 54.33 300.45 11.93 302.5 11.78 304.5 54.33 302.5 54.33"/><polygon class="cls-11" points="321.68 13.09 302.5 54.33 305.02 54.74 324.05 13.56 321.68 13.09"/><polygon class="cls-12" points="338.09 38.93 324.74 13.71 324.05 13.56 323.18 15.45 336.03 39.96 338.09 38.93"/><polygon class="cls-9" points="322.27 17.4 323.18 60.78 325.5 60.78 324.2 17.4 323.18 14.9 322.27 17.4"/><polygon class="cls-12" points="313.7 30.24 327.16 60.46 324.93 60.54 312.57 32.69 313.7 30.24"/><path class="cls-12" d="M351.09,33.26s-5.54-.79-6,4.58,3.83,7.22,6,6.45A31.32,31.32,0,0,0,351.09,33.26Z"/><polygon class="cls-10" points="322.19 60.78 310.6 81.42 313.01 82.76 326.27 60.54 322.19 60.78"/><circle class="cls-9" cx="311.32" cy="81.91" r="3.02"/><polygon class="cls-11" points="357.92 2.3 356 41.75 357.89 81.21 359.81 41.75 357.92 2.3"/><path class="cls-8" d="M357.64,42.27h0a2.1,2.1,0,0,1-2.09-2.09V36.65a2.1,2.1,0,0,1,2.09-2.09h0a2.1,2.1,0,0,1,2.09,2.09v3.52A2.1,2.1,0,0,1,357.64,42.27Z"/><path class="cls-5" d="M336.43,42.7h0a2.1,2.1,0,0,1-2.09-2.09V37.08A2.1,2.1,0,0,1,336.43,35h0a2.1,2.1,0,0,1,2.09,2.09V40.6A2.1,2.1,0,0,1,336.43,42.7Z"/><rect class="cls-9" x="351.34" y="37.64" width="4.21" height="2.32"/><path class="cls-13" d="M278.63,57.33s10.34-8.84,30.71-5.24c0,0,8.6.74,7.58,4.66-.91,3.49-4.42,3.06-7.7,2.92-8.62-.37-13.36-1.52-23-1.65C282.29,58,279.73,58.52,278.63,57.33Z"/></g></g></svg>