<svg id="Componente_64_1" data-name="Componente 64 – 1" xmlns="http://www.w3.org/2000/svg" width="143.005" height="117" viewBox="0 0 143.005 117">
  <g id="Grupo_1743" data-name="Grupo 1743" transform="translate(0)">
    <g id="hypotesis" transform="translate(0 67.87)">
      <g id="Grupo_6" data-name="Grupo 6" transform="translate(0)" style="isolation: isolate">
        <path id="Trazado_375" data-name="Trazado 375" d="M210.218,635.284V619.717h2.641v6.748h7.765v-6.748h2.641v15.567h-2.641v-6.368h-7.765v6.368Z" transform="translate(-210.218 -619.338)" fill="#fff"/>
        <path id="Trazado_376" data-name="Trazado 376" d="M234.934,635.284h-2.686v-6.145l-5.819-9.421h2.887l4.273,7.083,4.276-7.083h2.887l-5.819,9.421Z" transform="translate(-209.153 -619.338)" fill="#fff"/>
        <path id="Trazado_377" data-name="Trazado 377" d="M254.4,621.075a5.138,5.138,0,0,1,1.634,4.187,4.953,4.953,0,0,1-1.667,4.143,8.207,8.207,0,0,1-5.114,1.313h-2.775v4.565h-2.641V619.717h5.371Q252.767,619.717,254.4,621.075Zm-1.868,6.425a3.424,3.424,0,0,0,.794-2.45,2.531,2.531,0,0,0-1.007-2.282,5.816,5.816,0,0,0-3.156-.669h-2.686v6.237h3.066A4.1,4.1,0,0,0,252.533,627.5Z" transform="translate(-208.009 -619.338)" fill="#fff"/>
        <path id="Trazado_378" data-name="Trazado 378" d="M273.456,633.157a8.612,8.612,0,0,1-11.727,0,8.144,8.144,0,0,1,0-11.491,8.609,8.609,0,0,1,11.727,0,8.144,8.144,0,0,1,0,11.491Zm-1.935-9.742a5.5,5.5,0,0,0-7.856,0,5.795,5.795,0,0,0,0,7.995,5.508,5.508,0,0,0,7.856,0,5.794,5.794,0,0,0,0-7.995Z" transform="translate(-206.989 -619.36)" fill="#fff"/>
        <path id="Trazado_379" data-name="Trazado 379" d="M285.642,622.122v13.161H283V622.122h-4.745v-2.405h12.13v2.405Z" transform="translate(-205.748 -619.338)" fill="#fff"/>
        <path id="Trazado_380" data-name="Trazado 380" d="M305.415,619.717v2.472h-8.348v4.121h7.5v2.338h-7.5v4.163h8.616v2.472H294.427V619.717Z" transform="translate(-204.685 -619.338)" fill="#fff"/>
        <path id="Trazado_381" data-name="Trazado 381" d="M315.072,621.787a3.478,3.478,0,0,0-1.891.468,1.562,1.562,0,0,0-.739,1.415,1.642,1.642,0,0,0,.739,1.447,11.213,11.213,0,0,0,3.144,1.081,8.669,8.669,0,0,1,3.626,1.625,3.842,3.842,0,0,1,1.22,3.085,4.082,4.082,0,0,1-1.544,3.307,6.177,6.177,0,0,1-4.051,1.269,9.546,9.546,0,0,1-6.514-2.517l1.657-1.982a7.476,7.476,0,0,0,4.924,2.049,3.37,3.37,0,0,0,2.026-.546,1.707,1.707,0,0,0,.749-1.446,1.625,1.625,0,0,0-.7-1.4,7.456,7.456,0,0,0-2.429-.914,21.691,21.691,0,0,1-2.618-.756,5.892,5.892,0,0,1-1.589-.9,3.756,3.756,0,0,1-1.388-3.206,3.9,3.9,0,0,1,1.578-3.33,6.374,6.374,0,0,1,3.9-1.17,9.436,9.436,0,0,1,2.977.49,7.777,7.777,0,0,1,2.55,1.381l-1.409,1.982a5.353,5.353,0,0,0-1.881-1.024A7.274,7.274,0,0,0,315.072,621.787Z" transform="translate(-203.724 -619.36)" fill="#fff"/>
        <path id="Trazado_382" data-name="Trazado 382" d="M325.591,619.717h2.641v15.567h-2.641Z" transform="translate(-202.638 -619.338)" fill="#fff"/>
        <path id="Trazado_383" data-name="Trazado 383" d="M339.055,621.787a3.48,3.48,0,0,0-1.892.468,1.562,1.562,0,0,0-.738,1.415,1.642,1.642,0,0,0,.738,1.447,11.215,11.215,0,0,0,3.144,1.081,8.687,8.687,0,0,1,3.627,1.625,3.845,3.845,0,0,1,1.219,3.085,4.079,4.079,0,0,1-1.544,3.307,6.175,6.175,0,0,1-4.051,1.269,9.538,9.538,0,0,1-6.513-2.517l1.656-1.982a7.476,7.476,0,0,0,4.924,2.049,3.365,3.365,0,0,0,2.025-.546,1.705,1.705,0,0,0,.75-1.446,1.621,1.621,0,0,0-.706-1.4,7.417,7.417,0,0,0-2.428-.914,21.7,21.7,0,0,1-2.618-.756,5.877,5.877,0,0,1-1.589-.9,3.753,3.753,0,0,1-1.388-3.206,3.9,3.9,0,0,1,1.577-3.33,6.38,6.38,0,0,1,3.906-1.17,9.436,9.436,0,0,1,2.976.49,7.793,7.793,0,0,1,2.551,1.381l-1.41,1.982a5.357,5.357,0,0,0-1.88-1.024A7.278,7.278,0,0,0,339.055,621.787Z" transform="translate(-202.148 -619.36)" fill="#fff"/>
      </g>
    </g>
    <g id="Grupo_8" data-name="Grupo 8" transform="translate(46.891)">
      <path id="Trazado_389" data-name="Trazado 389" d="M109.991,233.281l-6.479-6.336a2.36,2.36,0,0,1,1.664-4.047h15.187a2.361,2.361,0,0,1,1.664,4.047l-6.479,6.336a1.206,1.206,0,0,0,1.521,1.777l19.351-9.5.218-.436-6.291-3.836a16.948,16.948,0,0,0-8.823-2.476H103.766a16.94,16.94,0,0,0-8.513,2.292c-2.85,1.656-6.322,3.663-7.023,4.02l20.24,9.939A1.206,1.206,0,0,0,109.991,233.281Z" transform="translate(-88.23 -188.532)" fill="#c2e3e6"/>
      <path id="Trazado_390" data-name="Trazado 390" d="M121.41,220.534a17.351,17.351,0,0,1,9.032,2.535l6.195,3.777-.218.436.889-.436-20.667-36.192a.777.777,0,0,0-1.413.625l7.286,19.576a5.04,5.04,0,0,1-4.746,6.785h-10a5.039,5.039,0,0,1-4.746-6.785l7.285-19.576a.776.776,0,0,0-1.412-.625L88.23,226.846c.694-.353,4.1-2.32,6.93-3.966a17.343,17.343,0,0,1,8.713-2.346Z" transform="translate(-88.23 -190.259)" fill="#fff"/>
    </g>
  </g>
  <text id="PRO" transform="translate(72 111)" fill="#fff" stroke="rgba(0,0,0,0)" stroke-width="1" font-size="18" font-family="Montserrat-SemiBold, Montserrat" font-weight="600" opacity="0.29"><tspan x="-20.601" y="0">PRO</tspan></text>
</svg>
