<svg id="LogotipoCurso" xmlns="http://www.w3.org/2000/svg" width="196.189" height="43.997" viewBox="0 0 196.189 43.997">
  <g id="hypotesis" transform="translate(-148.218 -604.36)">
    <g id="Grupo_6" data-name="Grupo 6" style="isolation: isolate">
      <path id="Trazado_375" data-name="Trazado 375" d="M210.218,634.4V619.717H212.7v6.363h7.286v-6.363h2.478V634.4h-2.478v-6.005H212.7V634.4Z" fill="#fff"/>
      <path id="Trazado_376" data-name="Trazado 376" d="M234.41,634.4h-2.52V628.6l-5.46-8.884h2.709l4.01,6.679,4.012-6.679h2.709l-5.46,8.884Z" fill="#fff"/>
      <path id="Trazado_377" data-name="Trazado 377" d="M253.75,621a4.858,4.858,0,0,1,1.533,3.948,4.682,4.682,0,0,1-1.564,3.907,7.673,7.673,0,0,1-4.8,1.238h-2.6v4.3h-2.478V619.717h5.04Q252.217,619.717,253.75,621ZM252,627.057a3.239,3.239,0,0,0,.745-2.31,2.391,2.391,0,0,0-.945-2.152,5.436,5.436,0,0,0-2.961-.631h-2.52v5.881h2.877A3.835,3.835,0,0,0,252,627.057Z" fill="#fff"/>
      <path id="Trazado_378" data-name="Trazado 378" d="M272.587,632.37a8.052,8.052,0,0,1-11,0,7.707,7.707,0,0,1,0-10.836,8.049,8.049,0,0,1,11,0,7.707,7.707,0,0,1,0,10.836Zm-1.816-9.187a5.146,5.146,0,0,0-7.372,0,5.484,5.484,0,0,0,0,7.539,5.151,5.151,0,0,0,7.372,0,5.484,5.484,0,0,0,0-7.539Z" fill="#fff"/>
      <path id="Trazado_379" data-name="Trazado 379" d="M285.187,621.985V634.4h-2.478V621.985h-4.452v-2.268h11.382v2.268Z" fill="#fff"/>
      <path id="Trazado_380" data-name="Trazado 380" d="M304.738,619.717v2.331H296.9v3.886h7.035v2.2H296.9v3.926h8.085V634.4H294.427V619.717Z" fill="#fff"/>
      <path id="Trazado_381" data-name="Trazado 381" d="M314.7,621.649a3.251,3.251,0,0,0-1.774.441,1.475,1.475,0,0,0-.693,1.334,1.551,1.551,0,0,0,.693,1.365,10.491,10.491,0,0,0,2.95,1.019,8.117,8.117,0,0,1,3.4,1.532,3.632,3.632,0,0,1,1.145,2.909,3.857,3.857,0,0,1-1.449,3.118,5.777,5.777,0,0,1-3.8,1.2,8.933,8.933,0,0,1-6.112-2.373l1.555-1.869a7,7,0,0,0,4.62,1.932,3.151,3.151,0,0,0,1.9-.515,1.612,1.612,0,0,0,.7-1.364,1.535,1.535,0,0,0-.661-1.323,6.976,6.976,0,0,0-2.279-.862,20.285,20.285,0,0,1-2.457-.713,5.524,5.524,0,0,1-1.491-.851,3.549,3.549,0,0,1-1.3-3.023,3.68,3.68,0,0,1,1.481-3.14,5.961,5.961,0,0,1,3.664-1.1,8.815,8.815,0,0,1,2.793.462,7.286,7.286,0,0,1,2.393,1.3l-1.322,1.869a5.016,5.016,0,0,0-1.765-.966A6.794,6.794,0,0,0,314.7,621.649Z" fill="#fff"/>
      <path id="Trazado_382" data-name="Trazado 382" d="M325.591,619.717h2.478V634.4h-2.478Z" fill="#fff"/>
      <path id="Trazado_383" data-name="Trazado 383" d="M338.685,621.649a3.252,3.252,0,0,0-1.775.441,1.475,1.475,0,0,0-.693,1.334,1.551,1.551,0,0,0,.693,1.365,10.491,10.491,0,0,0,2.95,1.019,8.134,8.134,0,0,1,3.4,1.532,3.635,3.635,0,0,1,1.144,2.909,3.854,3.854,0,0,1-1.449,3.118,5.775,5.775,0,0,1-3.8,1.2,8.925,8.925,0,0,1-6.111-2.373l1.554-1.869a7,7,0,0,0,4.62,1.932,3.146,3.146,0,0,0,1.9-.515,1.61,1.61,0,0,0,.7-1.364,1.531,1.531,0,0,0-.662-1.323,6.941,6.941,0,0,0-2.278-.862,20.285,20.285,0,0,1-2.457-.713,5.509,5.509,0,0,1-1.491-.851,3.547,3.547,0,0,1-1.3-3.023,3.679,3.679,0,0,1,1.48-3.14,5.965,5.965,0,0,1,3.665-1.1,8.815,8.815,0,0,1,2.793.462,7.3,7.3,0,0,1,2.394,1.3l-1.323,1.869a5.019,5.019,0,0,0-1.764-.966A6.8,6.8,0,0,0,338.685,621.649Z" fill="#fff"/>
    </g>
  </g>
  <g id="Grupo_8" data-name="Grupo 8" transform="translate(-88.23 -190.259)">
    <path id="Trazado_389" data-name="Trazado 389" d="M108.649,232.456l-6.08-5.975a2.227,2.227,0,0,1,1.561-3.816h14.251a2.227,2.227,0,0,1,1.561,3.816l-6.08,5.975a1.135,1.135,0,0,0,1.427,1.676l18.158-8.961.2-.411-5.9-3.617a15.845,15.845,0,0,0-8.279-2.335H102.808a15.836,15.836,0,0,0-7.988,2.161c-2.674,1.562-5.932,3.454-6.59,3.791l18.992,9.372A1.135,1.135,0,0,0,108.649,232.456Z" fill="#c2e3e6"/>
    <path id="Trazado_390" data-name="Trazado 390" d="M119.364,218.808a16.222,16.222,0,0,1,8.475,2.39l5.813,3.562-.2.411.834-.411-19.393-34.128a.729.729,0,0,0-1.326.589l6.837,18.46a4.749,4.749,0,0,1-4.453,6.4h-9.381a4.749,4.749,0,0,1-4.453-6.4l6.836-18.46a.729.729,0,0,0-1.325-.589L88.23,224.76c.651-.333,3.845-2.188,6.5-3.74a16.212,16.212,0,0,1,8.176-2.212Z" fill="#fff"/>
  </g>
</svg>
