<svg xmlns="http://www.w3.org/2000/svg" width="357.005" height="210.72" viewBox="0 0 357.005 210.72">
  <g id="Grupo_1648" data-name="Grupo 1648" transform="translate(-875 -222)">
    <g id="hypotesis" transform="translate(875 392.27)">
      <g id="Grupo_6" data-name="Grupo 6" transform="translate(0)" style="isolation: isolate">
        <path id="Trazado_375" data-name="Trazado 375" d="M210.218,658.77V619.717h6.593v16.929h19.384V619.717h6.593V658.77h-6.593V642.794H216.811V658.77Z" transform="translate(-210.218 -618.767)" fill="#fff"/>
        <path id="Trazado_376" data-name="Trazado 376" d="M247.661,658.77h-6.7V643.353L226.43,619.717h7.207l10.668,17.769,10.674-17.769h7.207l-14.526,23.636Z" transform="translate(-183.299 -618.767)" fill="#fff"/>
        <path id="Trazado_377" data-name="Trazado 377" d="M270.209,623.125q4.078,3.412,4.078,10.5t-4.161,10.395q-4.162,3.3-12.768,3.294h-6.928V658.77h-6.593V619.717h13.409Q266.13,619.717,270.209,623.125Zm-4.664,16.12q1.983-2.1,1.982-6.146t-2.514-5.725q-2.514-1.68-7.878-1.679h-6.7v15.646h7.654Q263.56,641.341,265.545,639.245Z" transform="translate(-154.393 -618.767)" fill="#fff"/>
        <path id="Trazado_378" data-name="Trazado 378" d="M294.555,653.973a21.422,21.422,0,0,1-29.276,0,20.5,20.5,0,0,1,0-28.829,21.415,21.415,0,0,1,29.276,0,20.5,20.5,0,0,1,0,28.829Zm-4.831-24.442a13.691,13.691,0,0,0-19.613,0,14.589,14.589,0,0,0,0,20.057,13.7,13.7,0,0,0,19.613,0,14.589,14.589,0,0,0,0-20.057Z" transform="translate(-128.624 -619.36)" fill="#fff"/>
        <path id="Trazado_379" data-name="Trazado 379" d="M296.694,625.751V658.77H290.1V625.751H278.257v-6.034h30.281v6.034Z" transform="translate(-97.241 -618.767)" fill="#fff"/>
        <path id="Trazado_380" data-name="Trazado 380" d="M321.859,619.717v6.2H301.02v10.339h18.716v5.866H301.02v10.445h21.51v6.2h-28.1V619.717Z" transform="translate(-70.392 -618.767)" fill="#fff"/>
        <path id="Trazado_381" data-name="Trazado 381" d="M324.065,625.45a8.649,8.649,0,0,0-4.72,1.173,3.923,3.923,0,0,0-1.844,3.549,4.125,4.125,0,0,0,1.844,3.631q1.844,1.257,7.848,2.711t9.051,4.076q3.045,2.626,3.046,7.739a10.261,10.261,0,0,1-3.855,8.3q-3.855,3.185-10.113,3.185a23.766,23.766,0,0,1-16.261-6.313l4.137-4.972q5.922,5.14,12.291,5.14a8.384,8.384,0,0,0,5.058-1.37,4.289,4.289,0,0,0,1.87-3.629,4.083,4.083,0,0,0-1.759-3.52,18.557,18.557,0,0,0-6.063-2.293,53.97,53.97,0,0,1-6.537-1.9,14.694,14.694,0,0,1-3.967-2.264q-3.464-2.622-3.464-8.042a9.791,9.791,0,0,1,3.94-8.354,15.858,15.858,0,0,1,9.748-2.935,23.451,23.451,0,0,1,7.431,1.229,19.385,19.385,0,0,1,6.367,3.464l-3.517,4.972a13.344,13.344,0,0,0-4.7-2.57A18.076,18.076,0,0,0,324.065,625.45Z" transform="translate(-46.089 -619.36)" fill="#fff"/>
        <path id="Trazado_382" data-name="Trazado 382" d="M325.591,619.717h6.593V658.77h-6.593Z" transform="translate(-18.645 -618.767)" fill="#fff"/>
        <path id="Trazado_383" data-name="Trazado 383" d="M348.048,625.45a8.653,8.653,0,0,0-4.722,1.173,3.923,3.923,0,0,0-1.844,3.549,4.125,4.125,0,0,0,1.844,3.631q1.844,1.257,7.848,2.711t9.054,4.076q3.041,2.626,3.044,7.739a10.253,10.253,0,0,1-3.855,8.3q-3.855,3.185-10.112,3.185a23.745,23.745,0,0,1-16.258-6.313l4.134-4.972q5.922,5.14,12.291,5.14a8.37,8.37,0,0,0,5.055-1.37,4.285,4.285,0,0,0,1.873-3.629,4.073,4.073,0,0,0-1.761-3.52,18.461,18.461,0,0,0-6.06-2.293,53.971,53.971,0,0,1-6.537-1.9,14.655,14.655,0,0,1-3.967-2.264q-3.468-2.622-3.464-8.042a9.789,9.789,0,0,1,3.938-8.354,15.872,15.872,0,0,1,9.751-2.935,23.452,23.452,0,0,1,7.431,1.229,19.426,19.426,0,0,1,6.369,3.464l-3.52,4.972a13.353,13.353,0,0,0-4.693-2.57A18.087,18.087,0,0,0,348.048,625.45Z" transform="translate(-6.266 -619.36)" fill="#fff"/>
      </g>
    </g>
    <g id="Grupo_8" data-name="Grupo 8" transform="translate(992.061 222)">
      <path id="Trazado_389" data-name="Trazado 389" d="M142.554,255.118l-16.176-15.9a5.925,5.925,0,0,1,4.153-10.152h37.914a5.926,5.926,0,0,1,4.153,10.152l-16.176,15.9a3.02,3.02,0,0,0,3.8,4.459l48.309-23.84.545-1.094-15.7-9.623a42.155,42.155,0,0,0-22.026-6.212H127.014a42.131,42.131,0,0,0-21.252,5.749c-7.114,4.156-15.782,9.189-17.532,10.086l50.528,24.934A3.02,3.02,0,0,0,142.554,255.118Z" transform="translate(-88.23 -142.854)" fill="#c2e3e6"/>
      <path id="Trazado_390" data-name="Trazado 390" d="M171.061,266.213a43.158,43.158,0,0,1,22.547,6.359l15.465,9.477-.545,1.094,2.219-1.094-51.594-90.8a1.94,1.94,0,0,0-3.528,1.567l18.19,49.112a12.635,12.635,0,0,1-11.847,17.022H137.01a12.634,12.634,0,0,1-11.847-17.022l18.187-49.112a1.938,1.938,0,0,0-3.525-1.567l-51.594,90.8c1.732-.886,10.229-5.821,17.3-9.95a43.132,43.132,0,0,1,21.752-5.885Z" transform="translate(-88.23 -190.259)" fill="#fff"/>
    </g>
  </g>
</svg>
