<svg xmlns="http://www.w3.org/2000/svg" viewBox="0 0 81.21 18.04"><defs><style>.cls-1{fill:#cce8eb;}</style></defs><g id="Capa_2" data-name="Capa 2"><g id="Capa_1-2" data-name="Capa 1"><path class="cls-1" d="M9.13,14.76.76,11a1.33,1.33,0,0,1-.56-.45A1.1,1.1,0,0,1,0,9.91V9.74A1.13,1.13,0,0,1,.2,9.1a1.33,1.33,0,0,1,.56-.45L9.13,4.89a1.06,1.06,0,0,1,.34-.06.82.82,0,0,1,.84.84.74.74,0,0,1-.16.47.89.89,0,0,1-.41.33L2.18,9.83l7.56,3.36a.94.94,0,0,1,.41.32.79.79,0,0,1,.16.48.81.81,0,0,1-.24.59.79.79,0,0,1-.6.25A1.09,1.09,0,0,1,9.13,14.76Z"/><path class="cls-1" d="M15.27,15.58a5.14,5.14,0,0,1-2-1.93,5.6,5.6,0,0,1-.77-3,5.58,5.58,0,0,1,.77-3,5.07,5.07,0,0,1,2-1.93,5.87,5.87,0,0,1,2.79-.68A5.79,5.79,0,0,1,20,5.41a7.42,7.42,0,0,1,1.5.72.84.84,0,0,1,.42.74.81.81,0,0,1-.24.57.73.73,0,0,1-.56.27.92.92,0,0,1-.46-.13,7.48,7.48,0,0,0-1.18-.51,4,4,0,0,0-1.23-.16,3.83,3.83,0,0,0-2.84,1,3.74,3.74,0,0,0-1,2.74,3.75,3.75,0,0,0,1,2.74,3.83,3.83,0,0,0,2.84,1,4,4,0,0,0,1.23-.16,7.48,7.48,0,0,0,1.18-.51.92.92,0,0,1,.46-.13.76.76,0,0,1,.56.26.84.84,0,0,1-.18,1.32A7.42,7.42,0,0,1,20,16a5.8,5.8,0,0,1-1.92.28A5.87,5.87,0,0,1,15.27,15.58Z"/><path class="cls-1" d="M26.1,15.56a4.74,4.74,0,0,1-1.88-2,6.24,6.24,0,0,1-.66-2.91,6.24,6.24,0,0,1,.66-2.91,4.68,4.68,0,0,1,1.88-2,5.56,5.56,0,0,1,2.84-.7,5.5,5.5,0,0,1,2.81.7,4.76,4.76,0,0,1,1.89,2,6.12,6.12,0,0,1,.67,2.91,6.12,6.12,0,0,1-.67,2.91,4.82,4.82,0,0,1-1.89,2,5.6,5.6,0,0,1-2.81.69A5.66,5.66,0,0,1,26.1,15.56Zm4.48-1.45a3.16,3.16,0,0,0,1.31-1.26,4.21,4.21,0,0,0,.51-2.18,4.22,4.22,0,0,0-.51-2.17,3.11,3.11,0,0,0-1.31-1.24,3.63,3.63,0,0,0-1.64-.39,3.69,3.69,0,0,0-1.67.39A3,3,0,0,0,26,8.5a4.22,4.22,0,0,0-.51,2.17A4.21,4.21,0,0,0,26,12.85a3,3,0,0,0,1.29,1.26,3.58,3.58,0,0,0,1.67.4A3.52,3.52,0,0,0,30.58,14.11Z"/><path class="cls-1" d="M38.94,15.59a5.08,5.08,0,0,1-1.89-1.93,5.94,5.94,0,0,1-.72-3,5.89,5.89,0,0,1,.72-3,5.08,5.08,0,0,1,1.89-1.93A4.85,4.85,0,0,1,45,6.72V1.58a1,1,0,0,1,1-1,.89.89,0,0,1,.67.28,1,1,0,0,1,.27.69V15.2a.94.94,0,0,1-.27.68A1,1,0,0,1,45,15.2v-.54a4.83,4.83,0,0,1-3.59,1.59A4.94,4.94,0,0,1,38.94,15.59ZM43.5,14A5.09,5.09,0,0,0,45,12.89V8.48a5.23,5.23,0,0,0-1.5-1.14,3.93,3.93,0,0,0-1.82-.43,3.28,3.28,0,0,0-2.49,1,3.87,3.87,0,0,0-.95,2.79,3.88,3.88,0,0,0,.95,2.79,3.28,3.28,0,0,0,2.49,1A3.93,3.93,0,0,0,43.5,14Z"/><path class="cls-1" d="M51,14.79a5.58,5.58,0,0,1-1.44-4.1,6.75,6.75,0,0,1,.55-2.75,4.64,4.64,0,0,1,1.68-2,4.78,4.78,0,0,1,2.79-.78,4.94,4.94,0,0,1,2.69.73A4.72,4.72,0,0,1,59,7.78a6,6,0,0,1,.59,2.64.92.92,0,0,1-1,.94H51.51a3.48,3.48,0,0,0,1.09,2.29,3.76,3.76,0,0,0,2.59.82,6.36,6.36,0,0,0,1.54-.17A6.29,6.29,0,0,0,58,13.82a.79.79,0,0,1,.38-.09A.88.88,0,0,1,59,14a.78.78,0,0,1,.25.59.9.9,0,0,1-.55.78,7.17,7.17,0,0,1-1.61.69,7.41,7.41,0,0,1-2.06.23A5.33,5.33,0,0,1,51,14.79Zm6.69-5a3.34,3.34,0,0,0-.54-1.73,2.8,2.8,0,0,0-1.16-1,3.27,3.27,0,0,0-1.41-.33,3.24,3.24,0,0,0-1.41.33,2.72,2.72,0,0,0-1.15,1,3.43,3.43,0,0,0-.53,1.73Z"/><path class="cls-1" d="M61.71,17.79a.85.85,0,0,1-.24-.61,1.1,1.1,0,0,1,.06-.32L67.09.59a.91.91,0,0,1,.3-.42A.81.81,0,0,1,67.91,0a.8.8,0,0,1,.62.25.85.85,0,0,1,.24.61,1.1,1.1,0,0,1-.06.32L63.15,17.45a.91.91,0,0,1-.3.42.89.89,0,0,1-1.14-.08Z"/><path class="cls-1" d="M71.14,14.58a.82.82,0,0,1-.25-.59.86.86,0,0,1,.16-.48,1,1,0,0,1,.41-.32L79,9.83,71.46,6.47a.94.94,0,0,1-.41-.33.81.81,0,0,1-.16-.47.82.82,0,0,1,.25-.6.81.81,0,0,1,.59-.24.9.9,0,0,1,.34.06l8.38,3.76A1.4,1.4,0,0,1,81,9.1a1.13,1.13,0,0,1,.2.64v.17a1.1,1.1,0,0,1-.2.64,1.4,1.4,0,0,1-.56.45l-8.38,3.76a.89.89,0,0,1-.34.07A.78.78,0,0,1,71.14,14.58Z"/></g></g></svg>